<mxfile host="app.diagrams.net" modified="2023-08-26T02:24:36.768Z" agent="Mozilla/5.0 (Windows NT 10.0; Win64; x64) AppleWebKit/537.36 (KHTML, like Gecko) Chrome/116.0.0.0 Safari/537.36" etag="YZg1F_IrEY73vX1siyNB" version="21.6.9" type="github">
  <diagram name="第 1 页" id="PB_nf5uyEakX5CC_Q3U3">
    <mxGraphModel dx="1364" dy="618" grid="1" gridSize="10" guides="1" tooltips="1" connect="1" arrows="1" fold="1" page="1" pageScale="1" pageWidth="827" pageHeight="1169" math="0" shadow="0">
      <root>
        <mxCell id="0" />
        <mxCell id="1" parent="0" />
        <mxCell id="RwFWexjP3_oaEFjTqjFq-1" value="" style="rounded=0;whiteSpace=wrap;html=1;" vertex="1" parent="1">
          <mxGeometry x="160" y="190" width="530" height="60" as="geometry" />
        </mxCell>
        <mxCell id="RwFWexjP3_oaEFjTqjFq-2" value="智慧金融平台" style="rounded=0;whiteSpace=wrap;html=1;" vertex="1" parent="1">
          <mxGeometry x="180" y="202.5" width="90" height="35" as="geometry" />
        </mxCell>
        <mxCell id="RwFWexjP3_oaEFjTqjFq-4" value="展示层" style="rounded=0;whiteSpace=wrap;html=1;" vertex="1" parent="1">
          <mxGeometry x="40" y="190" width="120" height="60" as="geometry" />
        </mxCell>
        <mxCell id="RwFWexjP3_oaEFjTqjFq-5" value="政策计算器平台" style="rounded=0;whiteSpace=wrap;html=1;" vertex="1" parent="1">
          <mxGeometry x="410" y="202.5" width="110" height="35" as="geometry" />
        </mxCell>
        <mxCell id="RwFWexjP3_oaEFjTqjFq-7" value="智慧金融管理端" style="rounded=0;whiteSpace=wrap;html=1;" vertex="1" parent="1">
          <mxGeometry x="290" y="202.5" width="100" height="35" as="geometry" />
        </mxCell>
        <mxCell id="RwFWexjP3_oaEFjTqjFq-8" value="......." style="rounded=0;whiteSpace=wrap;html=1;" vertex="1" parent="1">
          <mxGeometry x="540" y="202.5" width="110" height="35" as="geometry" />
        </mxCell>
      </root>
    </mxGraphModel>
  </diagram>
</mxfile>
